<mxfile host="app.diagrams.net" modified="2024-03-25T08:53:55.825Z" agent="Mozilla/5.0 (Windows NT 10.0; Win64; x64) AppleWebKit/537.36 (KHTML, like Gecko) Chrome/122.0.0.0 Safari/537.36" etag="bJ2xNGcIMOI_Ug-CEhrA" version="24.1.0" type="device">
  <diagram name="Page-1" id="YuvekOQx8xAtep3oEcWD">
    <mxGraphModel dx="3816" dy="2556" grid="1" gridSize="10" guides="1" tooltips="1" connect="1" arrows="1" fold="1" page="1" pageScale="1" pageWidth="850" pageHeight="1100" math="0" shadow="0">
      <root>
        <mxCell id="0" />
        <mxCell id="1" parent="0" />
        <mxCell id="qJgImqPm416msXqpPhX8-23" value="" style="edgeStyle=orthogonalEdgeStyle;rounded=0;orthogonalLoop=1;jettySize=auto;html=1;" parent="1" source="qJgImqPm416msXqpPhX8-20" target="qJgImqPm416msXqpPhX8-21" edge="1">
          <mxGeometry relative="1" as="geometry" />
        </mxCell>
        <mxCell id="qJgImqPm416msXqpPhX8-20" value="Start" style="strokeWidth=2;html=1;shape=mxgraph.flowchart.start_1;whiteSpace=wrap;" parent="1" vertex="1">
          <mxGeometry x="225" y="1085" width="100" height="60" as="geometry" />
        </mxCell>
        <mxCell id="qJgImqPm416msXqpPhX8-24" value="" style="edgeStyle=orthogonalEdgeStyle;rounded=0;orthogonalLoop=1;jettySize=auto;html=1;" parent="1" source="qJgImqPm416msXqpPhX8-21" target="qJgImqPm416msXqpPhX8-22" edge="1">
          <mxGeometry relative="1" as="geometry" />
        </mxCell>
        <mxCell id="qJgImqPm416msXqpPhX8-21" value="&lt;i&gt;Thermal Camera&lt;/i&gt;&lt;div&gt;mengumpulkan data&amp;nbsp;&lt;/div&gt;&lt;div&gt;suhu orang di dalam&amp;nbsp;&lt;/div&gt;&lt;div&gt;ruangan&lt;/div&gt;" style="shape=parallelogram;html=1;strokeWidth=2;perimeter=parallelogramPerimeter;whiteSpace=wrap;rounded=1;arcSize=12;size=0.23;" parent="1" vertex="1">
          <mxGeometry x="167.5" y="1185" width="215" height="90" as="geometry" />
        </mxCell>
        <mxCell id="qJgImqPm416msXqpPhX8-27" value="" style="edgeStyle=orthogonalEdgeStyle;rounded=0;orthogonalLoop=1;jettySize=auto;html=1;" parent="1" source="qJgImqPm416msXqpPhX8-22" target="qJgImqPm416msXqpPhX8-26" edge="1">
          <mxGeometry relative="1" as="geometry" />
        </mxCell>
        <mxCell id="qJgImqPm416msXqpPhX8-22" value="Data dikalkulasi oleh Raspi&amp;nbsp;&lt;div&gt;untuk memperoleh&lt;/div&gt;&lt;div&gt;Hasil Temperatur&lt;/div&gt;&lt;div&gt;rata-rata&lt;/div&gt;" style="rounded=1;whiteSpace=wrap;html=1;absoluteArcSize=1;arcSize=14;strokeWidth=2;" parent="1" vertex="1">
          <mxGeometry x="203.75" y="1305" width="142.5" height="80" as="geometry" />
        </mxCell>
        <mxCell id="qJgImqPm416msXqpPhX8-29" value="True" style="edgeStyle=orthogonalEdgeStyle;rounded=0;orthogonalLoop=1;jettySize=auto;html=1;" parent="1" source="qJgImqPm416msXqpPhX8-26" target="qJgImqPm416msXqpPhX8-28" edge="1">
          <mxGeometry relative="1" as="geometry" />
        </mxCell>
        <mxCell id="qJgImqPm416msXqpPhX8-31" value="False" style="edgeStyle=orthogonalEdgeStyle;rounded=0;orthogonalLoop=1;jettySize=auto;html=1;" parent="1" source="qJgImqPm416msXqpPhX8-26" target="qJgImqPm416msXqpPhX8-30" edge="1">
          <mxGeometry relative="1" as="geometry" />
        </mxCell>
        <mxCell id="qJgImqPm416msXqpPhX8-26" value="Temperatur &amp;gt; [&lt;i&gt;Referensi Suhu&lt;/i&gt;]" style="strokeWidth=2;html=1;shape=mxgraph.flowchart.decision;whiteSpace=wrap;" parent="1" vertex="1">
          <mxGeometry x="173.75" y="1415" width="202.5" height="150" as="geometry" />
        </mxCell>
        <mxCell id="qJgImqPm416msXqpPhX8-33" value="" style="edgeStyle=orthogonalEdgeStyle;rounded=0;orthogonalLoop=1;jettySize=auto;html=1;" parent="1" source="qJgImqPm416msXqpPhX8-28" target="qJgImqPm416msXqpPhX8-32" edge="1">
          <mxGeometry relative="1" as="geometry" />
        </mxCell>
        <mxCell id="qJgImqPm416msXqpPhX8-28" value="&lt;div&gt;raspberry pi&lt;/div&gt;&amp;nbsp;mengirim data ke&lt;div&gt;&lt;i&gt;remote &lt;/i&gt;untuk&lt;/div&gt;&lt;div&gt;&lt;b&gt;menaikan&lt;/b&gt; suhu&lt;/div&gt;" style="shape=parallelogram;html=1;strokeWidth=2;perimeter=parallelogramPerimeter;whiteSpace=wrap;rounded=1;arcSize=12;size=0.23;" parent="1" vertex="1">
          <mxGeometry x="185" y="1625" width="180" height="90" as="geometry" />
        </mxCell>
        <mxCell id="qJgImqPm416msXqpPhX8-30" value="&lt;div&gt;raspberry pi&lt;/div&gt;&amp;nbsp;mengirim data ke&lt;div&gt;&lt;i&gt;remote &lt;/i&gt;untuk&lt;/div&gt;&lt;div&gt;&lt;b&gt;menaikan&lt;/b&gt; suhu&lt;/div&gt;" style="shape=parallelogram;html=1;strokeWidth=2;perimeter=parallelogramPerimeter;whiteSpace=wrap;rounded=1;arcSize=12;size=0.23;" parent="1" vertex="1">
          <mxGeometry x="420" y="1445" width="180" height="90" as="geometry" />
        </mxCell>
        <mxCell id="qJgImqPm416msXqpPhX8-32" value="End" style="strokeWidth=2;html=1;shape=mxgraph.flowchart.start_1;whiteSpace=wrap;" parent="1" vertex="1">
          <mxGeometry x="225" y="1755" width="100" height="60" as="geometry" />
        </mxCell>
        <mxCell id="qJgImqPm416msXqpPhX8-34" style="edgeStyle=orthogonalEdgeStyle;rounded=0;orthogonalLoop=1;jettySize=auto;html=1;exitX=0.5;exitY=1;exitDx=0;exitDy=0;entryX=1;entryY=0.5;entryDx=0;entryDy=0;entryPerimeter=0;" parent="1" source="qJgImqPm416msXqpPhX8-30" target="qJgImqPm416msXqpPhX8-32" edge="1">
          <mxGeometry relative="1" as="geometry" />
        </mxCell>
        <mxCell id="qJgImqPm416msXqpPhX8-35" value="&lt;span style=&quot;font-size: 18px;&quot;&gt;&lt;b&gt;Flowchart&amp;nbsp;&lt;/b&gt;&lt;/span&gt;&lt;div&gt;&lt;span style=&quot;font-size: 18px;&quot;&gt;&lt;b&gt;Thermal Camera HVAC&lt;/b&gt;&lt;/span&gt;&lt;/div&gt;" style="text;html=1;align=center;verticalAlign=middle;whiteSpace=wrap;rounded=0;" parent="1" vertex="1">
          <mxGeometry x="150" y="1010" width="250" height="80" as="geometry" />
        </mxCell>
        <mxCell id="qJgImqPm416msXqpPhX8-36" value="By: Jona" style="text;html=1;align=center;verticalAlign=middle;whiteSpace=wrap;rounded=0;" parent="1" vertex="1">
          <mxGeometry x="120" y="1785" width="60" height="30" as="geometry" />
        </mxCell>
      </root>
    </mxGraphModel>
  </diagram>
</mxfile>
